<?xml version="1.0" encoding="utf-8"?>
<!-- Generator: Adobe Illustrator 14.0.0, SVG Export Plug-In . SVG Version: 6.00 Build 43363)  -->
<!DOCTYPE svg PUBLIC "-//W3C//DTD SVG 1.1//EN" "http://www.w3.org/Graphics/SVG/1.1/DTD/svg11.dtd">
<svg version="1.1" id="Layer_1" xmlns="http://www.w3.org/2000/svg" xmlns:xlink="http://www.w3.org/1999/xlink" x="0px" y="0px"
	 width="300px" height="111.539px" viewBox="0 0 300 111.539" enable-background="new 0 0 300 111.539" xml:space="preserve">
<g>
	<g>
		<g>
			<path fill="#6BB917" d="M189.716,4.328c-6.297,0-12.11,1.975-16.841,5.436l-2.708-2.708l-2.387,12.548l12.547-2.387l-2.417-2.419
				c3.397-2.214,7.445-3.519,11.806-3.519c11.923,0,21.525,9.699,21.525,21.622v13.343c0,4.852,0,8.337-2.424,11.52
				c-1.82,2.5-4.848,4.016-8.106,4.016c-3.41,0-5.304-1.742-6.063-2.954c-1.286-1.896-1.286-3.639-1.364-7.577v-5.538
				c0-6.667,0-10.987-2.878-14.472c-2.501-2.955-6.289-4.092-10.229-4.092c-7.427,0-10.61,3.712-12.201,5.683v-5.077h-6.819v34.104
				c0,15.754,12.739,28.572,28.495,28.572c6.297,0,12.113-2.066,16.841-5.532l2.708,2.708l2.388-12.549l-12.548,2.386l2.421,2.421
				c-3.401,2.224-7.449,3.617-11.81,3.617c-11.923,0-21.524-9.7-21.524-21.623V49.121c-0.075-4.927-0.151-8.335,2.048-11.594
				c2.499-3.789,6.137-4.47,8.638-4.47c2.577,0,4.927,0.985,6.289,3.182c0.734,1.191,1.021,2.366,1.136,4.83v9.647
				c0,7.35,0.455,10.683,4.017,13.941c1.969,1.741,5.153,3.107,9.472,3.107c6.291,0,10.152-2.955,11.896-6.062v5.304h6.669V32.899
				C218.29,17.146,205.473,4.328,189.716,4.328z"/>
		</g>
    <!--
		<g>
			<path fill="#002545" d="M42.904,31.498h-1.893c-1.153-7.492-5.681-10.126-12.185-10.126
				c-11.772-0.082-15.889,10.374-15.889,20.747c0,7.656,2.716,20.581,15.806,20.581c8.315,0,11.526-4.855,13.337-11.443h1.894
				l-0.905,10.62c-3.046,1.647-8.892,3.047-13.913,3.047c-7.163,0-13.338-1.482-17.289-5.434c-3.787-3.787-6.01-9.715-6.01-17.206
				c0-7.163,2.141-12.596,5.763-16.63c3.787-4.281,10.044-6.504,17.865-6.504c5.763,0,10.62,1.071,13.419,2.47V31.498z"/>
			<path fill="#002545" d="M78.386,48.375c0,10.291-4.939,16.302-15.147,16.302c-10.126,0-15.149-6.011-15.149-16.302
				c0-10.208,5.022-16.301,15.066-16.301C73.447,32.074,78.386,38.167,78.386,48.375z M71.8,48.375
				c0-8.727-2.716-14.078-8.561-14.078c-5.763,0-8.563,5.351-8.563,14.078c0,8.81,2.799,14.079,8.563,14.079
				C69.083,62.454,71.8,57.184,71.8,48.375z"/>
			<path fill="#002545" d="M113.54,58.418c0,3.211,0.247,3.376,4.775,3.705v1.811h-15.478v-1.811
				c4.611-0.329,4.775-0.494,4.775-3.705V43.435c0-5.516-2.388-7.904-6.669-7.904c-3.375,0-6.175,2.059-7.574,4.528
				c-0.494,1.071-0.576,1.976-0.576,3.54v14.819c0,3.211,0.247,3.376,4.775,3.705v1.811H82.173v-1.811
				c4.529-0.329,4.693-0.494,4.693-3.705V38.414c0-2.224-0.33-2.553-1.976-2.8l-2.47-0.33V33.72l9.386-1.646l0.905,4.857
				c3.952-2.552,6.833-4.857,11.525-4.857c5.846,0,9.304,3.705,9.304,10.126V58.418z"/>
			<path fill="#002545" d="M129.264,35.367v19.677c0,4.857,1.976,6.338,4.199,6.338c1.564,0,2.964-0.164,4.446-0.823l0.494,1.317
				c-1.811,1.153-4.857,2.801-7.986,2.801c-2.223,0-7.08-0.742-7.08-7.246V35.367h-4.611v-2.469h4.775l3.869-7.986h1.894v7.986h8.15
				v2.469H129.264z"/>
			<path fill="#002545" d="M149.681,32.074l0.494,0.412v25.933c0,3.211,0.247,3.376,4.775,3.705v1.811h-15.396v-1.811
				c4.529-0.329,4.693-0.494,4.693-3.705V38.414c0-2.224-0.33-2.553-1.977-2.8l-2.47-0.33V33.72L149.681,32.074z M150.998,22.524
				c-0.083,2.223-1.564,3.787-3.869,3.787c-2.305,0-3.87-1.564-3.87-3.787c0-2.305,1.565-3.951,3.87-3.951
				C149.434,18.573,150.998,20.219,150.998,22.524z"/>
		</g>
		<g>
			<path fill="#002545" d="M234.622,32.074l0.493,0.412v25.933c0,3.211,0.246,3.376,4.776,3.705v1.811h-15.396v-1.811
				c4.53-0.329,4.693-0.494,4.693-3.705V38.414c0-2.224-0.329-2.553-1.976-2.799l-2.471-0.33V33.72L234.622,32.074z M235.94,22.524
				c-0.084,2.223-1.566,3.787-3.872,3.787c-2.305,0-3.867-1.564-3.867-3.787c0-2.305,1.563-3.951,3.867-3.951
				C234.374,18.573,235.94,20.219,235.94,22.524z"/>
			<path fill="#002545" d="M252.404,35.367v19.677c0,4.857,1.976,6.338,4.197,6.338c1.563,0,2.964-0.164,4.447-0.823l0.493,1.317
				c-1.81,1.153-4.856,2.801-7.986,2.801c-2.222,0-7.079-0.742-7.079-7.246V35.367h-4.612v-2.469h4.776l3.869-7.986h1.895v7.986
				h8.149v2.469H252.404z"/>
			<path fill="#002545" d="M274.796,32.897v1.811l-2.718,0.248c-1.397,0.163-1.316,0.822-0.904,1.976
				c2.305,6.668,4.856,13.583,7.822,21.241h0.08c2.802-7.576,6.094-17.206,7.081-20.995c0.247-1.234,0.163-2.059-0.904-2.141
				l-3.293-0.329v-1.811h12.184v1.811c-3.21,0.165-3.622,0.658-4.692,3.211c-1.977,4.445-7.82,19.924-11.772,31.201
				c-3.212,9.386-6.422,10.127-8.974,10.127c-2.717,0-4.446-1.729-4.446-3.293c0-1.812,1.563-3.54,2.8-3.54
				c0.739,0,1.234,0.328,1.893,0.905c1.152,1.151,1.729,1.318,2.306,1.318c0.741,0,1.894-0.578,2.798-2.637
				c0.988-2.057,1.565-3.951,1.565-5.434c0-1.069-0.166-1.975-0.495-3.045c-1.563-4.446-6.832-17.947-9.961-25.521
				c-1.152-2.8-1.81-3.129-4.856-3.294v-1.811H274.796z"/>
		</g>
    -->
	</g>
  <!--
	<g>
		<path fill="#002545" d="M16.127,94.582c0.913,0.882,1.419,1.884,1.52,3.003h-1.743c-0.195-0.851-0.582-1.524-1.161-2.022
			c-0.58-0.497-1.394-0.746-2.441-0.746c-1.278,0-2.309,0.458-3.096,1.372c-0.784,0.915-1.177,2.316-1.177,4.206
			c0,1.549,0.354,2.803,1.064,3.766c0.708,0.963,1.767,1.444,3.174,1.444c1.294,0,2.282-0.507,2.958-1.521
			c0.359-0.532,0.627-1.234,0.805-2.103h1.743c-0.153,1.39-0.662,2.555-1.528,3.497c-1.037,1.132-2.435,1.698-4.194,1.698
			c-1.517,0-2.79-0.463-3.821-1.394c-1.356-1.23-2.035-3.128-2.035-5.694c0-1.949,0.509-3.547,1.528-4.795
			c1.101-1.354,2.621-2.032,4.558-2.032C13.933,93.261,15.216,93.702,16.127,94.582z"/>
		<path fill="#002545" d="M64.099,95.508c0.875,1.167,1.313,2.665,1.313,4.485c0,1.972-0.501,3.611-1.502,4.919
			c-1.175,1.532-2.85,2.299-5.026,2.299c-2.031,0-3.628-0.67-4.791-2.012c-1.037-1.294-1.555-2.931-1.555-4.909
			c0-1.786,0.444-3.314,1.331-4.583c1.137-1.631,2.822-2.446,5.051-2.446C61.252,93.261,62.978,94.01,64.099,95.508z
			 M62.522,103.925c0.704-1.13,1.056-2.431,1.056-3.899c0-1.554-0.406-2.805-1.218-3.752s-1.921-1.422-3.331-1.422
			c-1.366,0-2.481,0.469-3.344,1.407c-0.862,0.939-1.294,2.323-1.294,4.151c0,1.465,0.37,2.7,1.111,3.705
			c0.74,1.003,1.94,1.505,3.6,1.505C60.677,105.621,61.816,105.055,62.522,103.925z"/>
		<path fill="#002545" d="M100.68,93.621h2.108l6.585,10.669V93.621h1.708v13.205h-2.01l-6.684-10.657v10.657h-1.708V93.621z"/>
		<path fill="#002545" d="M156.716,93.621v1.574h-4.45v11.631h-1.808V95.195h-4.45v-1.574H156.716z"/>
		<path fill="#002545" d="M191.715,93.621h6.003c0.987,0,1.803,0.146,2.444,0.441c1.217,0.563,1.828,1.603,1.828,3.117
			c0,0.791-0.164,1.439-0.491,1.942c-0.326,0.504-0.783,0.909-1.37,1.215c0.516,0.21,0.904,0.485,1.164,0.826
			c0.262,0.342,0.406,0.896,0.436,1.663l0.063,1.771c0.018,0.504,0.06,0.877,0.125,1.125c0.109,0.419,0.3,0.688,0.577,0.809v0.296
			H200.3c-0.061-0.112-0.107-0.26-0.144-0.439c-0.036-0.181-0.066-0.527-0.09-1.043l-0.107-2.203
			c-0.042-0.864-0.354-1.44-0.935-1.734c-0.333-0.161-0.854-0.243-1.564-0.243h-3.955v5.663h-1.79V93.621z M197.525,99.669
			c0.816,0,1.462-0.167,1.935-0.503c0.477-0.336,0.715-0.939,0.715-1.815c0-0.94-0.334-1.582-0.997-1.925
			c-0.356-0.178-0.831-0.269-1.425-0.269h-4.248v4.512H197.525z"/>
		<path fill="#002545" d="M248.812,95.508c0.875,1.167,1.312,2.665,1.312,4.485c0,1.972-0.5,3.611-1.502,4.919
			c-1.174,1.532-2.848,2.299-5.024,2.299c-2.031,0-3.628-0.67-4.791-2.012c-1.036-1.294-1.556-2.931-1.556-4.909
			c0-1.786,0.443-3.314,1.33-4.583c1.139-1.631,2.823-2.446,5.053-2.446C245.964,93.261,247.69,94.01,248.812,95.508z
			 M247.233,103.925c0.705-1.13,1.056-2.431,1.056-3.899c0-1.554-0.405-2.805-1.217-3.752c-0.813-0.947-1.924-1.422-3.331-1.422
			c-1.366,0-2.482,0.469-3.345,1.407c-0.863,0.939-1.293,2.323-1.293,4.151c0,1.465,0.368,2.7,1.108,3.705
			c0.74,1.003,1.94,1.505,3.602,1.505C245.389,105.621,246.529,105.055,247.233,103.925z"/>
		<path fill="#002545" d="M285.392,93.621h1.79v11.632h6.625v1.573h-8.415V93.621z"/>
	</g>
  -->
</g>
</svg>
